<?xml version="1.0" encoding="UTF-8" standalone="no"?>
<!-- Created with Inkscape (http://www.inkscape.org/) -->
<svg
   xmlns:svg="http://www.w3.org/2000/svg"
   xmlns="http://www.w3.org/2000/svg"
   version="1.0"
   width="18.5"
   height="11.3"
   id="svg64537">
  <defs
     id="defs64539" />
  <g
     id="layer1">
    <path
       d="M 16.775096,7.5888734 C 16.138846,7.2951234 15.365096,7.0913734 14.453846,6.9788734 C 14.091346,6.9351234 13.517596,6.8876234 12.730096,6.8363734 C 11.942596,6.7863734 10.482596,6.7051234 8.3513458,6.5938734 C 7.9900958,6.0126234 7.5175958,5.4926234 6.9350958,5.0313734 C 6.3525958,4.5701234 5.6613458,4.1726234 4.8625958,3.8388734 C 5.1075958,3.6576234 5.2963458,3.4626234 5.4263458,3.2513734 C 5.5575958,3.0401234 5.6388458,2.8088734 5.6700958,2.5563734 C 5.7425958,1.9663734 5.6000958,1.4426234 5.2425958,0.98512343 C 4.8863458,0.52637343 4.4125958,0.26137343 3.8250958,0.18887343 C 3.2563458,0.11887343 2.7688458,0.22762343 2.3638458,0.51262343 C 1.9575958,0.79887343 1.7238458,1.1938734 1.6625958,1.6988734 C 1.6138458,2.0876234 1.6800958,2.4501234 1.8588458,2.7838734 C 2.0375958,3.1188734 2.3088458,3.4001234 2.6750958,3.6288734 C 2.7850958,3.6951234 3.0338458,3.7976234 3.4238458,3.9376234 C 3.8138458,4.0763734 4.1175958,4.1888734 4.3363458,4.2751234 C 5.0000958,4.5338734 5.5750958,4.8926234 6.0588458,5.3513734 C 6.5438458,5.8101234 6.9313458,6.3588734 7.2200958,6.9963734 C 6.7363458,7.3588734 6.2738458,7.6138734 5.8338458,7.7601234 C 5.3925958,7.9063734 4.9588458,7.9538734 4.5338458,7.9013734 C 4.2688458,7.8688734 3.8788458,7.7563734 3.3650958,7.5663734 C 2.8513458,7.3751234 2.4625958,7.2626234 2.1975958,7.2301234 C 1.6400958,7.1626234 1.1700958,7.2638734 0.78509575,7.5338734 C 0.40009575,7.8051234 0.17634575,8.1926234 0.11384575,8.6963734 C 0.042595752,9.2776234 0.20384575,9.8076234 0.60009575,10.286373 C 0.99384575,10.763873 1.5025958,11.041373 2.1250958,11.117623 C 2.6750958,11.185123 3.1563458,11.067623 3.5688458,10.763873 C 3.9800958,10.460123 4.2188458,10.046373 4.2825958,9.5238734 C 4.3025958,9.3613734 4.2963458,9.1876234 4.2638458,8.9988734 C 4.2300958,8.8113734 4.1738458,8.6176234 4.0938458,8.4176234 L 4.4900958,8.4663734 C 5.0188458,8.5313734 5.5775958,8.5838734 6.1688458,8.6226234 C 6.7600958,8.6626234 7.4013458,8.6876234 8.0938458,8.7001234 L 9.8113458,11.293873 L 11.726346,11.321373 L 10.000096,8.7963734 L 18.477596,8.8226234 C 17.978846,8.2951234 17.411346,7.8838734 16.775096,7.5888734 M 4.6400958,3.2063734 C 4.4175958,3.3851234 4.1363458,3.4538734 3.7938458,3.4126234 C 3.3475958,3.3576234 2.9763458,3.1638734 2.6788458,2.8326234 C 2.3813458,2.5013734 2.2575958,2.1413734 2.3050958,1.7538734 C 2.3463458,1.4176234 2.4975958,1.1576234 2.7600958,0.97262343 C 3.0213458,0.78887343 3.3400958,0.72012343 3.7150958,0.76637343 C 4.1475958,0.81887343 4.4900958,1.0026234 4.7400958,1.3151234 C 4.9900958,1.6276234 5.0888458,1.9938734 5.0375958,2.4138734 C 4.9950958,2.7626234 4.8625958,3.0263734 4.6400958,3.2063734 M 3.1675958,10.306373 C 2.8963458,10.506373 2.5725958,10.582623 2.1963458,10.536373 C 1.7488458,10.481373 1.3838458,10.283873 1.0988458,9.9438734 C 0.81509575,9.6038734 0.69884575,9.2276234 0.74884575,8.8138734 C 0.79009575,8.4776234 0.94884575,8.2176234 1.2250958,8.0313734 C 1.5013458,7.8451234 1.8338458,7.7763734 2.2238458,7.8238734 C 2.6700958,7.8788734 3.0313458,8.0663734 3.3038458,8.3851234 C 3.5775958,8.7038734 3.6900958,9.0638734 3.6413458,9.4638734 C 3.5963458,9.8263734 3.4388458,10.106373 3.1675958,10.306373"
       id="path2577"
       style="fill:#231f20;fill-opacity:1;fill-rule:nonzero;stroke:none" />
  </g>
</svg>
